<?xml version="1.0" encoding="UTF-8"?>
<svg id="Layer_2" data-name="Layer 2" xmlns="http://www.w3.org/2000/svg" viewBox="0 0 1145.23 747.84">
  <defs>
    <style>
      .cls-1, .cls-2, .cls-3, .cls-4, .cls-5, .cls-6, .cls-7, .cls-8, .cls-9, .cls-10, .cls-11, .cls-12, .cls-13, .cls-14, .cls-15, .cls-16, .cls-17, .cls-18, .cls-19 {
        fill-rule: evenodd;
      }

      .cls-1, .cls-20 {
        fill: #372e28;
      }

      .cls-21, .cls-19 {
        fill: #bfa998;
      }

      .cls-22, .cls-4 {
        fill: #fff;
      }

      .cls-2, .cls-23 {
        fill: #bda08a;
      }

      .cls-24, .cls-9 {
        fill: #d8cdc4;
      }

      .cls-3, .cls-25 {
        fill: #7f6653;
      }

      .cls-5 {
        fill: #897361;
      }

      .cls-26, .cls-13 {
        fill: #1b1b23;
      }

      .cls-6 {
        fill: #c4bab2;
      }

      .cls-7 {
        fill: #efded1;
      }

      .cls-27, .cls-12 {
        fill: #6a2a29;
      }

      .cls-8 {
        fill: #b7765d;
      }

      .cls-10 {
        fill: #edd5bf;
      }

      .cls-11 {
        fill: #4e4742;
      }

      .cls-14 {
        fill: #dfa679;
      }

      .cls-15 {
        fill: #a48268;
      }

      .cls-28, .cls-17 {
        fill: #ad4845;
      }

      .cls-16 {
        fill: #6e6762;
      }

      .cls-18 {
        fill: #5a514a;
      }
    </style>
  </defs>
  <g id="OBJECTS">
    <g>
      <path class="cls-7" d="m307.32,323.74c39.78,11.33,56.97,67.94-12.62,84.8-80.95,19.61-173.51-6.11-251.48,68.11-81.17,80.71-40.83,271.35,81.48,271.2l849.29-1.04c76.25-.1,134.9-85.92,113.62-200.29-16.97-91.18-78.75-127.75-153.5-144.25-82.57-18.22-75.81-63.43-13.72-113.53,52.85-42.64,81.44-208.72-38.51-256C784.89-5.49,454.07-26.27,281.66,63.05c-115.42,59.8-105.37,223.36,25.66,260.68Z"/>
      <g>
        <g>
          <rect class="cls-22" x="395.91" y="39.47" width="37.35" height="708.37"/>
          <rect class="cls-23" x="395.91" y="39.47" width="10.88" height="708.37"/>
          <path class="cls-22" d="m395.37,35.5h40.11c2.86,0,5.18,2.32,5.18,5.18h0c0,2.87-2.32,5.19-5.18,5.19h-40.11c-2.86,0-5.19-2.32-5.19-5.19h0c0-2.86,2.32-5.19,5.19-5.19Z"/>
          <path class="cls-9" d="m395.37,737.47h40.11c2.85,0,5.18,2.33,5.18,5.19h0c0,2.85-2.33,5.19-5.18,5.19h-40.11c-2.85,0-5.19-2.33-5.19-5.19h0c0-2.85,2.33-5.19,5.19-5.19Z"/>
        </g>
        <g>
          <rect class="cls-20" x="265.3" y="292.8" width="246.21" height="143.85"/>
          <rect class="cls-20" x="680.15" y="292.8" width="246.21" height="143.85"/>
          <path class="cls-16" d="m848.21,384.96c-16.79,0-30.41,17.28-30.41,38.61s13.61,38.61,30.41,38.61,30.41-17.29,30.41-38.61-13.61-38.61-30.41-38.61Z"/>
          <g>
            <path class="cls-1" d="m638.83,348.59c-30.92,0-55.98,33.29-55.98,74.37s25.06,74.36,55.98,74.36h37.79c-41.66-20.58-46.88-44.8-46.88-74.36,0-19.81,0-43.71,46.88-74.37h-37.79Z"/>
            <path class="cls-13" d="m676.62,348.59c-34.37,0-62.23,33.29-62.23,74.37s27.86,74.36,62.23,74.36,62.23-33.29,62.23-74.36-27.86-74.37-62.23-74.37Z"/>
          </g>
          <path class="cls-24" d="m329.01,436.78h355.65c2.93,0,5.3,2.38,5.3,5.3v13.34c0,2.93-2.38,5.3-5.3,5.3h-355.65c-2.93,0-5.3-2.38-5.3-5.3v-13.34c0-2.93,2.38-5.3,5.3-5.3Z"/>
          <g>
            <path class="cls-1" d="m87.62,348.59c-30.92,0-55.98,33.29-55.98,74.37s25.06,74.36,55.98,74.36h37.79c-41.67-20.58-46.88-44.8-46.88-74.36,0-19.81,0-43.71,46.88-74.37h-37.79Z"/>
            <path class="cls-13" d="m125.4,348.59c-34.37,0-62.23,33.29-62.23,74.37s27.86,74.36,62.23,74.36,62.23-33.29,62.23-74.36-27.86-74.37-62.23-74.37Z"/>
            <path class="cls-15" d="m224.35,258.36c65.17-44.74,101.42-69.62,121.59-83.46,30.83-21.16,53.86-17.35,89.34-17.35h254.27l158.97,101.43c99.8,0,89.91,112.7,77.47,177.35h-17.5c.66-4.34,1.01-8.81,1.01-13.38,0-41.07-27.86-74.37-62.23-74.37s-62.23,33.29-62.23,74.37c0,4.57.35,9.04,1.01,13.38h-381.96c10.75-70.67-32.91-99.56-72.53-93.74-35.03,5.14-58.66,42.52-58.66,80.36,0,22.82.34,9.04,1.01,13.38h-15.92l-2.8,6.25c-1.33,2.95-2.65,5.77-5.88,5.88l-36.31,1.21c-3.8.12-8.42-10.09-10.39-13.34H46.68c-2.15,2.7-8,12.13-10.86,12.13H12.74c-3.23,0-5.88-2.65-5.88-5.88v-118.89s4.04-24.89,38.89-35.47c34.85-10.58,178.6-29.87,178.6-29.87Z"/>
            <path class="cls-3" d="m224.35,258.36c65.17-44.74,101.42-69.62,121.59-83.46,30.83-21.16,53.86-17.35,89.34-17.35h259.26c28.42,0,36.9,4.99,60.85,22.56,33.78,24.79,71.84,63.17,93.13,78.87h38.58c84.19,0,72.5,177.35,72.5,177.35h-51.1c.66-4.34,1.01-8.81,1.01-13.38,0-41.07-27.86-74.37-62.23-74.37s-62.23,33.29-62.23,74.37c0,4.57.35,9.04,1.01,13.38h-382.24c-1.58-1.1-1.45,1.26-1.37-1.73.05-1.88.08-5.38.08-11.65,0-51.21-35.02-74.22-65.56-72.33-30.9,1.91-57.35,29.26-57.35,72.33,0,22.82.35,9.04,1.01,13.38h-22.18c6.81-54.01,29.48-114.02,82.94-136.42,65.34-27.38,107.98-40.45,107.98-40.45h-233.08c5.14-.71,8.09-1.1,8.09-1.1Z"/>
            <path class="cls-2" d="m959.86,398.69c.76,22-.28,37.64-.28,37.64h-51.1c.66-4.34,1.01-8.81,1.01-13.38,0-41.07-27.86-74.37-62.23-74.37s-62.23,33.29-62.23,74.37c0,4.57.35,9.04,1.01,13.38h-382.56c-.98,0-1.12.1-1.07-1.02.07-1.65.1-5.2.1-12.36,0-51.21-35.02-74.22-65.56-72.33-30.9,1.91-57.35,29.26-57.35,72.33,0,22.82.35,9.04,1.01,13.38h-22.18c2.44-19.33,6.91-39.43,14.1-58.3,42.44-72.73,128.36-53.4,151.68,16.58.91,2.72,11.3,2.66,20.26,2.94,78.38,2.38,318.83,2.22,318.83,2.22,0,0,18.58-75.87,84.12-72.26,65.55,3.61,77.24,50.08,79.48,65.03,2.24,14.95,18,9.68,32.96,6.15Z"/>
            <path class="cls-2" d="m932.67,436.33h-24.19c.66-4.34,1.01-8.81,1.01-13.38,0-41.07-27.86-74.37-62.23-74.37s-62.23,33.29-62.23,74.37c0,4.57.35,9.04,1.01,13.38h-24.19c-.63-4.37-.95-8.83-.95-13.38,0-49.6,38.67-89.81,86.37-89.81s86.37,40.21,86.37,89.81c0,4.55-.33,9.01-.96,13.38Z"/>
            <path class="cls-1" d="m239.94,259.15h209.09c33.9-55.83,86.21-92.72,85.87-92.72h-143.13c-22.24,0-38.55,12.88-57.08,25.78-33.24,23.15-61.52,43.8-94.76,66.95Z"/>
            <path class="cls-1" d="m466.76,260.71c7.47-16.18,67.76-83.45,89.61-90.23,18.05-5.6,68.4-2.87,68.4-2.87l-.57,93.1h-157.44Z"/>
            <path class="cls-1" d="m812.59,260.71c-7.63-16.18-69.27-83.45-91.62-90.23-18.45-5.6-81.9-2.87-81.9-2.87l.58,93.1h172.93Z"/>
            <path class="cls-1" d="m52.68,317.03h141.39c6.47,0,14.37,5.85,11.76,11.76l-9.41,21.28c-2.61,5.91-5.29,11.76-11.76,11.76H60.32c-6.47,0-9.57-5.67-11.76-11.76l-7.65-21.28c-2.19-6.09,5.29-11.76,11.76-11.76Z"/>
            <path class="cls-1" d="m41.21,419.55h175.01c3.09,0,6.88-2.8,5.63-5.63l-4.5-10.19c-1.25-2.83-2.54-5.63-5.63-5.63H44.87c-3.09,0-4.58,2.72-5.63,5.63l-3.66,10.19c-1.05,2.91,2.53,5.63,5.63,5.63Z"/>
            <path class="cls-4" d="m6.86,361.83h22.28c6.47,0,14.85-5.28,12.71-10.62l-7.68-19.22c-2.13-5.34-4.34-10.62-10.81-10.62H7.45c-.45,1.46-.59,2.32-.59,2.32v38.13Z"/>
            <path class="cls-9" d="m218.3,361.83h32.48c18.6-.59,29.42-18.95,34.04-31.03,3.99-10.42,2.14-10.15-8.7-9.96-5.63.1-9.97.54-12.16.54h-34.38c-6.46,0-10.03,5.12-12.71,10.62l-9.37,19.22c-2.68,5.5,4.34,10.62,10.81,10.62Z"/>
            <path class="cls-4" d="m284.02,321.01c-1.73-.3-4.33-.23-7.91-.17-5.63.1-9.97.54-12.16.54h-34.38c-6.46,0-10.03,5.12-12.71,10.62l-9.11,18.69c2.22,2.05,5.68,3.4,9,3.4h32.47c18.6-.59,29.42-18.95,34.04-31.03.28-.73.53-1.41.75-2.05Z"/>
            <path class="cls-1" d="m29.92,413.92l4.5-10.19c1.25-2.83-2.53-5.63-5.63-5.63H6.86v21.45h17.44c3.09,0,4.38-2.8,5.63-5.63Z"/>
            <path class="cls-1" d="m223.31,403.73l3.66,10.19c1.05,2.91,2.53,5.63,5.63,5.63h18.82c6.36.03,5.26-2.83,8-17.66.86-4.65.64-3.79-4.06-3.79h-26.42c-3.09,0-6.67,2.72-5.63,5.63Z"/>
            <g>
              <rect class="cls-22" x="53.71" y="325.96" width="139.91" height="5.24" rx="2.62" ry="2.62"/>
              <path class="cls-4" d="m61.57,336.81h124.2c1.44,0,2.62,1.18,2.62,2.62h0c0,1.44-1.18,2.62-2.62,2.62H61.57c-1.44,0-2.62-1.18-2.62-2.62h0c0-1.44,1.18-2.62,2.62-2.62Z"/>
              <path class="cls-22" d="m66.81,347.66h113.73c1.45,0,2.62,1.17,2.62,2.62h0c0,1.45-1.17,2.62-2.62,2.62h-113.72c-1.45,0-2.62-1.17-2.62-2.62h0c0-1.45,1.17-2.62,2.62-2.62Z"/>
            </g>
            <path class="cls-2" d="m22.03,301.2c-.61-.29-.87-1.01-.59-1.62.28-.61,1.01-.87,1.62-.59,4.01,1.87,10.16,3.22,19.1,4.11,9.02.89,20.87,1.3,36.23,1.3h223.87c1.76.1,26.88,1.12,47.55-9.22.6-.3,1.34-.06,1.64.54.3.6.06,1.34-.54,1.64-21.29,10.64-47.07,9.57-48.77,9.49H78.4c-15.38,0-27.32-.42-36.47-1.32-9.23-.91-15.63-2.33-19.9-4.33Z"/>
            <path class="cls-20" d="m78.79,370.64h89.01c2.69,0,4.88,2.18,4.88,4.88v11.95c0,2.69-2.19,4.88-4.88,4.88h-89.01c-2.69,0-4.88-2.19-4.88-4.88v-11.94c0-2.69,2.19-4.88,4.88-4.88Z"/>
            <path class="cls-11" d="m366.82,237.91c70.91,0,70.85-4.42,130.93-71.49h-105.97c-22.24,0-38.55,12.88-57.08,25.78-22.8,15.88-43.26,30.58-64.59,45.71h96.71Z"/>
            <path class="cls-11" d="m617.09,167.28c-14.81-.51-47.04-1.05-60.72,3.19-16.5,5.12-54.93,44.75-75.97,70.81h100.75c38.24,0,35.93-45.98,35.93-74Z"/>
            <path class="cls-11" d="m655.99,167.11v43.12s-8.92,28.43,49.38,28.43h91.09c-8.08-9.6-18.26-20.73-28.71-31.2-17.85-17.89-36.49-33.86-46.79-36.98-3.56-1.08-8.79-1.85-14.92-2.39-15.13-1.33-35.72-1.26-50.06-.98Z"/>
            <path class="cls-2" d="m262.17,432.55c-.06.67-.66,1.16-1.33,1.1-.67-.06-1.16-.66-1.1-1.33,1.8-18.95,8.48-52.65,25.23-82.13,11.22-19.75,26.96-37.62,48.79-47.92,53.95-25.48,112.61-42.66,112.78-42.71.65-.19,1.33.18,1.52.83.19.65-.18,1.33-.83,1.52-.17.05-58.64,17.18-112.43,42.58-21.31,10.06-36.71,27.56-47.71,46.92-16.54,29.11-23.13,62.42-24.92,81.15Z"/>
            <path class="cls-2" d="m949.37,322.8c-5.7-20.21-14.33-38.55-27.3-50.33-4.13,4.2-7.03,9.61-8.11,15.64-.31,1.73-.48,3.52-.48,5.34,0,11.02,5.95,20.64,14.81,25.84,4.44,2.6,9.61,4.09,15.12,4.09,2.04,0,4.02-.2,5.95-.59Z"/>
            <path class="cls-9" d="m924.82,275.12c-1.58,1.91-3.84,4.63-4.19,5.24-1.49,2.59-2.53,5.42-3.07,8.39-.28,1.55-.42,3.12-.42,4.69,0,9.36,4.95,17.96,13,22.69,4.04,2.37,8.59,3.59,13.27,3.59.26,0,3.05.15,5.13.26-5.27-17.65-12.86-33.68-23.74-44.87Z"/>
            <path class="cls-9" d="m274.59,348.82c-9.21-5.82-15.36-15.92-15.54-27.44h-12.3c8.4,6.05,13.85,15.81,13.85,26.83,0,4.38-.86,8.55-2.42,12.38,6.69-2.08,12.12-6.54,16.42-11.76Z"/>
            <path class="cls-3" d="m534.76,223.32h-28.33c-5.33,0-8.93,5.12-11.86,10.62l-6.88,12.94c-3.27,6.16-3.85,9.15,3.92,9.15h26.76c9.2-.35,12.08-2.4,17.96-10.3,9.91-13.32,13.52-22.41-1.58-22.41Z"/>
            <path class="cls-25" d="m917.47,425.74h46.45c2.93,0,5.3,2.38,5.3,5.3v13.34c0,2.93-2.38,5.3-5.3,5.3h-46.45c-2.93,0-5.3-2.38-5.3-5.3v-13.34c0-2.93,2.38-5.3,5.3-5.3Z"/>
            <path class="cls-2" d="m466.76,261.93c-.68,0-1.23-.55-1.23-1.23s.55-1.23,1.23-1.23c4.06,0,18.33,17.83,18.37,17.88.18.22.27.49.27.76v158.21c0,.68-.54,1.23-1.22,1.23s-1.22-.55-1.22-1.23v-157.78c-1.91-2.37-13.54-16.62-16.19-16.62Z"/>
            <path class="cls-2" d="m631.05,157.28c0-.68.55-1.23,1.23-1.23s1.22.55,1.22,1.23v279.05c0,.68-.55,1.23-1.22,1.23s-1.23-.55-1.23-1.23V157.28Z"/>
            <path class="cls-2" d="m846.04,259.15c0-.68.55-1.23,1.22-1.23s1.23.55,1.23,1.23c0,43.7-1.23,66.25-1.24,66.32-.04.67-.61,1.19-1.28,1.16h-.04c-3.51-.29-6.88-.41-10.11-.38-25.36.29-43.99,10.31-56.77,26.36-12.85,16.12-19.85,38.34-21.9,62.93-.5,5.97-.7,12.05-.63,18.19,0,.67-.54,1.23-1.21,1.23-.68,0-1.23-.54-1.23-1.21-.07-6.26.14-12.42.63-18.41,2.08-25.05,9.25-47.73,22.42-64.25,13.23-16.6,32.48-26.97,58.67-27.27,2.96-.03,5.98.06,9.08.28.25-5.27,1.16-27.11,1.16-64.93Z"/>
            <path class="cls-25" d="m414.77,425.74h355.65c2.93,0,5.3,2.38,5.3,5.3v13.34c0,2.93-2.38,5.3-5.3,5.3h-355.65c-2.93,0-5.3-2.38-5.3-5.3v-13.34c0-2.93,2.38-5.3,5.3-5.3Z"/>
            <path class="cls-26" d="m585.41,288.58h34.42c1.73,0,3.13,1.4,3.13,3.13v7.65c0,1.72-1.4,3.12-3.12,3.12h-34.42c-1.73,0-3.13-1.4-3.13-3.13v-7.65c0-1.72,1.4-3.12,3.12-3.12Z"/>
            <path class="cls-26" d="m789.79,288.58h34.42c1.72,0,3.12,1.4,3.12,3.12v7.65c0,1.72-1.4,3.12-3.12,3.12h-34.42c-1.73,0-3.13-1.4-3.13-3.13v-7.65c0-1.72,1.4-3.12,3.12-3.12Z"/>
            <path class="cls-15" d="m460.38,279.29c-2.2-.06-4.34-.11-6.6-.17-16.62-.44-26.92,1.79-42.64,2.97h0c13.36-7.12,28.35-8.78,42.66-9.26,84.67-2.87,287.74-4.09,372.45-4.82l-.03,6.8c-87.34.71-276.74,1.89-365.83,4.48Z"/>
            <path class="cls-23" d="m204.2,425.74h55.27c2.93,0,5.3,2.38,5.3,5.3v13.34c0,2.93-2.38,5.3-5.3,5.3h-55.27c-2.93,0-5.3-2.38-5.3-5.3v-13.34c0-2.93,2.38-5.3,5.3-5.3Z"/>
            <path class="cls-23" d="m5.3,425.74h42.04c2.93,0,5.3,2.38,5.3,5.3v13.34c0,2.93-2.38,5.3-5.3,5.3H5.3c-2.93,0-5.3-2.38-5.3-5.3v-13.34c0-2.93,2.38-5.3,5.3-5.3Z"/>
            <path class="cls-11" d="m45.89,413.46h167.6c.95,0,1.73-.78,1.73-1.72h0c0-.95-.78-1.73-1.73-1.73H45.89c-.95,0-1.73.78-1.73,1.73h0c0,.95.77,1.72,1.73,1.72h0Zm4.67-7.15h158.26c.95,0,1.72-.78,1.72-1.72h0c0-.95-.78-1.73-1.72-1.73H50.57c-.95,0-1.73.78-1.73,1.73h0c0,.95.77,1.72,1.73,1.72Z"/>
            <path class="cls-9" d="m29.14,353.05H6.86v8.77h22.28c6.47,0,14.85-5.28,12.71-10.62l-1.27-3.19c-2.47,2.91-7.34,5.03-11.44,5.03Z"/>
          </g>
          <path class="cls-9" d="m848.21,395.95c-12.01,0-21.74,12.36-21.74,27.61s9.73,27.61,21.74,27.61,21.74-12.36,21.74-27.61-9.73-27.61-21.74-27.61Z"/>
          <path class="cls-16" d="m339.22,384.96c-16.79,0-30.41,17.28-30.41,38.61s13.62,38.61,30.41,38.61,30.41-17.29,30.41-38.61-13.61-38.61-30.41-38.61Z"/>
          <path class="cls-9" d="m339.22,395.95c-12.01,0-21.74,12.36-21.74,27.61s9.74,27.61,21.74,27.61,21.75-12.36,21.75-27.61-9.74-27.61-21.75-27.61Z"/>
        </g>
        <g>
          <rect class="cls-22" x="575.73" y="39.47" width="37.35" height="708.37"/>
          <path class="cls-27" d="m597.67,432.99h32.19c1.8,0,3.27,1.46,3.27,3.27v79.92c0,1.8-1.46,3.27-3.27,3.27h-32.19c-1.8,0-3.27-1.46-3.27-3.27v-79.91c0-1.8,1.46-3.27,3.27-3.27Z"/>
          <rect class="cls-23" x="575.73" y="39.47" width="10.88" height="708.37"/>
          <path class="cls-28" d="m604.58,432.99h32.19c1.8,0,3.27,1.46,3.27,3.27v79.91c0,1.8-1.46,3.27-3.27,3.27h-32.19c-1.8,0-3.27-1.46-3.27-3.27v-79.91c0-1.8,1.46-3.27,3.27-3.27Z"/>
          <g>
            <path class="cls-12" d="m619.44,447.7c-2.44,0-4.42,2.52-4.42,5.62s1.98,5.62,4.42,5.62c.74,0,2.93.02,3.54-.39,1.41-.94.88-3.06.88-5.23,0-2.34.29-4.72-1.31-5.57-.52-.28-2.51-.05-3.11-.05Z"/>
            <path class="cls-14" d="m621.93,447.7c-2.44,0-4.42,2.52-4.42,5.62s1.98,5.62,4.42,5.62,4.43-2.52,4.43-5.62-1.98-5.62-4.43-5.62Z"/>
            <g>
              <path class="cls-12" d="m619.44,470.43c-2.44,0-4.42,2.52-4.42,5.62s1.98,5.62,4.42,5.62c.74,0,2.93.02,3.54-.39,1.41-.94.88-3.07.88-5.23,0-2.34.29-4.72-1.31-5.57-.52-.28-2.51-.05-3.11-.05Z"/>
              <path class="cls-14" d="m621.93,470.43c-2.44,0-4.42,2.52-4.42,5.62s1.98,5.62,4.42,5.62,4.43-2.52,4.43-5.62-1.98-5.62-4.43-5.62Z"/>
            </g>
          </g>
          <g>
            <path class="cls-12" d="m610.19,491.93c-1.54,0-2.79,1.59-2.79,3.54s1.25,3.54,2.79,3.54c.47,0,1.85.01,2.24-.25.89-.59.56-1.93.56-3.3,0-1.47.18-2.98-.83-3.51-.33-.17-1.58-.03-1.96-.03Z"/>
            <path class="cls-14" d="m611.76,491.93c-1.54,0-2.79,1.59-2.79,3.54s1.25,3.54,2.79,3.54,2.79-1.59,2.79-3.54-1.25-3.54-2.79-3.54Z"/>
            <g>
              <path class="cls-12" d="m619.84,491.96c-1.54,0-2.79,1.59-2.79,3.54s1.25,3.54,2.79,3.54c.47,0,1.85.01,2.24-.24.89-.59.56-1.93.56-3.3,0-1.47.18-2.97-.83-3.51-.33-.17-1.58-.03-1.96-.03Z"/>
              <path class="cls-14" d="m621.41,491.96c-1.54,0-2.79,1.59-2.79,3.54s1.25,3.54,2.79,3.54,2.79-1.59,2.79-3.54-1.25-3.54-2.79-3.54Z"/>
            </g>
            <g>
              <path class="cls-12" d="m630.13,491.96c-1.54,0-2.79,1.59-2.79,3.54s1.25,3.54,2.79,3.54c.47,0,1.85.01,2.24-.24.89-.59.55-1.93.55-3.3,0-1.47.18-2.97-.83-3.51-.33-.17-1.58-.03-1.96-.03Z"/>
              <path class="cls-14" d="m631.7,491.96c-1.54,0-2.79,1.59-2.79,3.54s1.25,3.54,2.79,3.54,2.79-1.59,2.79-3.54-1.25-3.54-2.79-3.54Z"/>
            </g>
          </g>
          <g>
            <path class="cls-12" d="m610.19,502.91c-1.54,0-2.79,1.59-2.79,3.54s1.25,3.54,2.79,3.54c.47,0,1.85.01,2.24-.24.89-.59.56-1.93.56-3.3,0-1.48.18-2.98-.83-3.51-.33-.17-1.58-.03-1.96-.03Z"/>
            <path class="cls-14" d="m611.76,502.91c-1.54,0-2.79,1.59-2.79,3.54s1.25,3.54,2.79,3.54,2.79-1.59,2.79-3.54-1.25-3.54-2.79-3.54Z"/>
            <g>
              <path class="cls-12" d="m619.84,502.94c-1.54,0-2.79,1.59-2.79,3.54s1.25,3.54,2.79,3.54c.47,0,1.85.01,2.24-.25.89-.59.56-1.93.56-3.3,0-1.47.18-2.98-.83-3.51-.33-.17-1.58-.03-1.96-.03Z"/>
              <path class="cls-14" d="m621.41,502.94c-1.54,0-2.79,1.59-2.79,3.54s1.25,3.54,2.79,3.54,2.79-1.59,2.79-3.54-1.25-3.54-2.79-3.54Z"/>
            </g>
            <g>
              <path class="cls-12" d="m630.13,502.94c-1.54,0-2.79,1.59-2.79,3.54s1.25,3.54,2.79,3.54c.47,0,1.85.01,2.24-.25.89-.59.55-1.93.55-3.3,0-1.47.18-2.98-.83-3.51-.33-.17-1.58-.03-1.96-.03Z"/>
              <path class="cls-14" d="m631.7,502.94c-1.54,0-2.79,1.59-2.79,3.54s1.25,3.54,2.79,3.54,2.79-1.59,2.79-3.54-1.25-3.54-2.79-3.54Z"/>
            </g>
          </g>
          <path class="cls-22" d="m574.84,35.5h40.11c2.86,0,5.19,2.32,5.19,5.19h0c0,2.86-2.32,5.19-5.19,5.19h-40.11c-2.86,0-5.19-2.32-5.19-5.19h0c0-2.86,2.32-5.19,5.19-5.19Z"/>
          <path class="cls-9" d="m574.83,737.47h40.11c2.85,0,5.19,2.33,5.19,5.19h0c0,2.85-2.33,5.19-5.19,5.19h-40.11c-2.85,0-5.18-2.33-5.18-5.19h0c0-2.85,2.33-5.19,5.18-5.19Z"/>
        </g>
      </g>
      <g>
        <g>
          <g>
            <path class="cls-14" d="m875.47,601.18c33.51,53.45,54.25,67.81,85.36,67.81s23.14-106.91,23.14-106.91c0,0-86.71-59.94-108.5,39.09Z"/>
            <path class="cls-14" d="m576.05,747.33l.57-35.26c1.39-14.95,2.1-29.29,1.3-42.04l9.01-47.11c11.51-42.53,5.31-82.18-19.45-97.29-27.93-17.04-54.09-13.26-64.95,14.2-27.7,70-28.47,149.38-22.07,207.64l95.57-.13Z"/>
            <path class="cls-5" d="m988.82,534.23c-84.24,8.61-115.45,53.1-115.45,53.1,0,0-7.46-31.08-12.07-65.32-4.7-34.88-14.54-74.15-3.97-99.38,4.12-9.84-20.56-46.2-11.43-44.62,27.26,4.71,53.34-.1,78.31,22.9,22.41,20.64,43.93,65.25,64.62,133.32Z"/>
            <path class="cls-5" d="m866.36,670.11c.77,0,4.82,6.16,24.73-11.81,1.96-1.77-6.54-66.69-4.4-68.23,39.43-28.6,89.93-38.76,89.84-39.81-11.01-129.3-115.17-190.38-237.31-191.81-170.76-2-212.92,109.01-233.8,172.23-9.86,29.85,24.66,29.94,26.6,29.96l40.42,17.76,28.26,90.89,265.67.82Z"/>
            <g>
              <path class="cls-1" d="m570.85,632.03l9.23,35.83-7.88,79.47,333.08-.44-8.31-76.58,1.95-25.35c-11.9-8.38-19.04-18.22-25.21-28.62-25.93-43.78-25.18-161.85-31.55-241.54-12.94-4.17-26.21-7.52-39.66-10.1,2.37,29.68,4.75,59.36,7.12,89.04,2.1,26.35-2.99,33.91-17.69,36.02-18.2,2.62-93.25,3.58-105.99-.29-12.78-3.87-17.06-12.11-17.61-31.65l9.73-95.85c-13.46,2.31-26.77,5.42-39.81,9.32-6.56,63.49-3.45,179.37-44.37,237.29-3.6,5.1-18.71,19.32-23.03,23.45Z"/>
              <path class="cls-18" d="m656.09,597.54c-3.26,0-5.9-2.64-5.9-5.9s2.64-5.9,5.9-5.9h169.13c3.26,0,5.9,2.64,5.9,5.9s-2.64,5.9-5.9,5.9h-169.13Z"/>
              <g>
                <path class="cls-18" d="m651.81,597.39c-.03-.81.61-1.49,1.43-1.52.81-.03,1.49.61,1.52,1.43.33,10.32.33,19.81.33,28.5,0,34.7-.01,56.55,21.46,70.21,1.63,1.04,3.47,2.09,5.47,2.96,1.99.86,4.19,1.56,6.59,1.91,38.13,5.61,102.12.42,102.3.4.81-.06,1.52.54,1.59,1.36.06.81-.54,1.53-1.36,1.59-.19.01-64.49,5.23-102.96-.43-2.66-.39-5.11-1.17-7.33-2.13-2.21-.96-4.17-2.08-5.88-3.17-22.84-14.52-22.83-37-22.83-72.7,0-8.65,0-18.08-.32-28.4Z"/>
                <path class="cls-18" d="m826.57,597.3c.03-.81.71-1.45,1.52-1.43.81.03,1.45.71,1.42,1.52-.33,10.32-.32,19.76-.32,28.4,0,35.7.01,58.18-22.83,72.7-7.04,4.47-17.79,5.52-30.12,6.73l-1.75.17c-4.24.42-8.66.72-13.15.93-4.87.23-9.87.34-14.86.37-.81,0-1.48-.66-1.48-1.47,0-.81.66-1.48,1.47-1.48,4.9-.03,9.86-.14,14.74-.37,4.44-.21,8.8-.5,12.99-.92l1.76-.17c11.94-1.17,22.36-2.19,28.82-6.29,21.47-13.65,21.47-35.51,21.46-70.21,0-8.69,0-18.17.33-28.5Z"/>
              </g>
              <path class="cls-18" d="m630.27,464.1c-.04-.81.58-1.5,1.39-1.55.81-.04,1.5.58,1.55,1.39.53,9.35,4.44,14.79,9.4,17.13,2.18,1.03,4.57,1.47,6.97,1.39,2.42-.08,4.85-.69,7.08-1.76,5.42-2.6,9.67-7.94,9.81-15.04.02-.81.69-1.46,1.5-1.44.81.02,1.46.69,1.44,1.5-.16,8.33-5.13,14.58-11.48,17.63-2.59,1.25-5.43,1.96-8.26,2.05-2.85.09-5.71-.43-8.32-1.66-5.87-2.77-10.49-9.02-11.08-19.63Z"/>
              <path class="cls-18" d="m845.4,463.94c.04-.81.74-1.43,1.55-1.39.81.04,1.43.74,1.39,1.55-.6,10.6-5.22,16.86-11.09,19.63-2.61,1.23-5.46,1.76-8.32,1.66-2.83-.09-5.66-.8-8.26-2.05-6.34-3.05-11.31-9.3-11.48-17.63-.02-.81.63-1.48,1.44-1.5.81-.02,1.48.63,1.5,1.44.14,7.1,4.39,12.44,9.81,15.04,2.24,1.07,4.67,1.68,7.09,1.76,2.4.08,4.79-.36,6.97-1.39,4.96-2.34,8.88-7.78,9.4-17.13Z"/>
              <path class="cls-18" d="m650.67,456.54c-4.25,0-7.7,3.45-7.7,7.69s3.45,7.69,7.7,7.69,7.69-3.45,7.69-7.69-3.45-7.69-7.69-7.69Z"/>
              <path class="cls-18" d="m829.6,456.54c-4.25,0-7.69,3.45-7.69,7.69s3.45,7.69,7.69,7.69,7.69-3.45,7.69-7.69-3.45-7.69-7.69-7.69Z"/>
            </g>
            <path class="cls-5" d="m488.71,570.33c79.71,10.69,107.01,15.27,107.01,15.27,12.83-46.03,47.44-215.38,39.02-211.76-23.5,10.11-83.45,32.12-107.82,51.95-29.94,24.36-25.62,34.77-38.2,144.53Z"/>
            <path class="cls-1" d="m881.26,557.34c-.69.43-1.59.23-2.03-.46-.43-.69-.23-1.59.46-2.03,59.29-37.22,116.24-32.01,116.41-32,.81.07,1.41.78,1.35,1.59-.07.81-.78,1.41-1.59,1.35-.17-.01-56.17-5.14-114.6,31.55Z"/>
            <path class="cls-5" d="m601.35,588.84c-6.47,30.47-11.26,16.11-11.26,16.11l-2.94,12.97-111.07-20.04,6.82-33.71,118.44,24.67Z"/>
            <path class="cls-1" d="m585.64,584.59c.79.19,1.28.98,1.09,1.77-.19.79-.98,1.28-1.77,1.09-28.87-6.9-50.72-11.74-66.48-15.06-15.77-3.32-25.32-5.1-29.75-5.91-.8-.14-1.33-.91-1.19-1.71.14-.8.91-1.33,1.7-1.19,4.5.82,14.15,2.62,29.83,5.92,15.69,3.31,37.53,8.15,66.56,15.08Z"/>
            <path class="cls-1" d="m583.69,613.61c-.09.81-.82,1.39-1.62,1.3-.81-.09-1.39-.82-1.3-1.62l16.42-144.78-11.75-33.45c-.27-.77.14-1.61.9-1.87.77-.27,1.61.14,1.87.9l11.83,33.7c.09.22.13.47.1.72l-16.46,145.1Z"/>
            <path class="cls-1" d="m890.79,629.24c.09.81-.49,1.54-1.3,1.63-.81.09-1.54-.49-1.63-1.3l-18.05-153.08c-.02-.2,0-.4.05-.59l9.45-38.49c.19-.79.99-1.27,1.78-1.08.79.19,1.27.99,1.08,1.78l-9.4,38.3,18.02,152.83Z"/>
            <path class="cls-1" d="m674.65,384.09c-.18-.79.31-1.58,1.1-1.77.79-.18,1.58.31,1.77,1.1,3.28,14.07,14.74,24.34,29.43,30.43,10.74,4.45,23.18,6.67,35.44,6.5,12.22-.17,24.25-2.71,34.18-7.77,12.12-6.18,21.09-16.13,23.42-30.11.13-.8.89-1.34,1.69-1.21.8.13,1.34.89,1.21,1.69-2.5,15.02-12.08,25.67-24.99,32.25-10.33,5.27-22.81,7.91-35.49,8.09-12.64.17-25.5-2.12-36.6-6.72-15.52-6.43-27.65-17.39-31.17-32.49Z"/>
            <path class="cls-1" d="m506.96,664.35c-.82.15-1.6-.4-1.74-1.21-.15-.81.4-1.6,1.21-1.74,26.75-4.86,51.79,4.83,51.86,4.86.78.3,1.17,1.17.87,1.94-.3.78-1.17,1.17-1.94.87-.07-.03-24.35-9.43-50.26-4.72Z"/>
          </g>
          <g>
            <g>
              <path class="cls-14" d="m633.39,211.59c10.3.05,21.09,13.53,24.09,30.1s-2.91,29.97-13.21,29.92c-10.3-.05-21.09-13.53-24.09-30.1-3.01-16.57,2.91-29.97,13.21-29.92Z"/>
              <path class="cls-8" d="m638.13,259.41c.35-9.73,7.38-9.54,11.97-6.27.03-10.14-7.21-24.85-13.83-28.13-10.72-4.82-12.69,26.28,1.87,34.4Z"/>
              <path class="cls-1" d="m629.35,229.76c-.31.59-1.03.8-1.59.47-.56-.33-.77-1.07-.45-1.66,1.38-2.58,2.97-4.11,4.7-4.78,2.02-.79,4.12-.39,6.16.87,1.88,1.16,3.72,3.06,5.39,5.43,4.38,6.19,7.73,15.69,7.71,23.05,0,.67-.52,1.22-1.17,1.22-.24,0-.47-.08-.66-.21-1.47-1.04-3.19-1.74-4.81-1.8-.8-.03-1.58.1-2.27.42-.67.32-1.27.83-1.76,1.57-.74,1.13-1.22,2.79-1.31,5.11-.02.67-.56,1.2-1.21,1.18-.64-.02-1.15-.59-1.12-1.26.1-2.82.74-4.91,1.71-6.4.75-1.14,1.68-1.93,2.73-2.42,1.03-.48,2.16-.68,3.31-.63,1.38.05,2.8.45,4.13,1.09-.54-6.5-3.46-14.22-7.16-19.45-1.49-2.11-3.1-3.79-4.7-4.78-1.44-.89-2.86-1.19-4.16-.69-1.21.47-2.39,1.64-3.47,3.68Z"/>
              <path class="cls-14" d="m850.91,212.66c-10.3-.05-21.29,13.32-24.54,29.87-3.25,16.54,2.46,30,12.76,30.05,10.3.05,21.29-13.32,24.54-29.87,3.25-16.54-2.46-30-12.76-30.05Z"/>
              <path class="cls-8" d="m845.46,260.44c-.21-9.73-7.24-9.61-11.88-6.38.12-10.14,7.58-24.78,14.25-28,10.79-4.72,12.3,26.4-2.38,34.38Z"/>
              <path class="cls-1" d="m856.74,229.72c.3.59.09,1.34-.48,1.65-.57.32-1.28.1-1.59-.5-1.05-2.04-2.2-3.21-3.39-3.7-1.29-.52-2.72-.24-4.17.63-1.62.97-3.25,2.63-4.78,4.72-3.78,5.19-6.83,12.9-7.47,19.4,1.35-.63,2.8-1.01,4.19-1.05,1.14-.03,2.25.18,3.27.67,1.03.5,1.95,1.3,2.67,2.43.96,1.5,1.56,3.6,1.62,6.44.01.67-.5,1.23-1.15,1.24-.64.01-1.18-.52-1.19-1.2-.05-2.32-.51-3.99-1.24-5.13-.47-.74-1.06-1.25-1.71-1.57-.67-.33-1.44-.46-2.24-.45-1.62.04-3.38.72-4.88,1.76-.19.13-.42.2-.66.2-.64,0-1.16-.56-1.15-1.23.08-7.37,3.59-16.86,8.06-23,1.71-2.35,3.58-4.23,5.47-5.36,2.06-1.23,4.16-1.6,6.18-.78,1.71.69,3.28,2.23,4.61,4.82Z"/>
              <path class="cls-14" d="m693.92,306.99l-7.86,62.04c-2.57,20.3,24.32,37.05,54.31,37.05s53.95-16.35,54.31-36.6l-7.01-62.05-93.75-.43Z"/>
              <path class="cls-8" d="m688.52,349.63c34.89,25.99,81.26,19.92,103.94.12l-4.78-42.33-93.75-.43-5.4,42.64Z"/>
              <path class="cls-14" d="m838.5,190.38c-.65,88.43-35.94,148.37-97.85,148.07-61.91-.3-96.31-60.58-95.66-149.01.94-127.86,194.46-126.92,193.51.94Z"/>
              <path class="cls-8" d="m838.5,190.38c-.01,1.68-.04,3.34-.08,5-9.51,5.99-28.04,1.47-49.35-17.87-33.43-30.34-65.54-30.34-98.97,0-18.47,16.76-34.84,22.39-45.07,19.7-.04-2.56-.06-5.15-.04-7.76.14-18.38,4.27-34.09,11.22-47.15,43.25-28.9,137.38-27.04,174.06,5.6,5.34,12.12,8.36,26.28,8.24,42.49Z"/>
              <path class="cls-5" d="m818.25,161.37c-31.82-16.12-45.45-32.01-79.97-32.2-34.52-.18-33.31,7.9-65.34,23.68,0,.03-44.35,10.73-33.88,5.77-.56-150.8,192.39-156.61,202.48-22.87,2.56,33.94-23.29,25.64-23.28,25.61Z"/>
              <path class="cls-1" d="m674.58,159.78c-4.76-.53-11.17-1.14-19.36-1.7-3.88-.26-8.16-.51-12.85-.74-1.34,4.29-2.07,8.44-2.21,12.31-.4,11.43,1.61,26.74,4.18,40.6,2.67,14.46,5.95,27.32,7.69,32.54.03-.13.06-.26.1-.39,1.91-7.96,1.9-16.86,3.12-24.68,1.07-6.8,3.07-12.79,8.1-16.68,6.07-4.69,6.29-15.36,8.85-27.67.89-4.28,1.21-9.64,2.39-13.59Z"/>
              <path class="cls-1" d="m809.52,159.78c4.76-.53,11.17-1.14,19.36-1.7,3.88-.26,8.16-.51,12.85-.74,1.34,4.29,2.07,8.44,2.21,12.31.4,11.43-1.61,26.74-4.18,40.6-2.68,14.46-5.95,27.32-7.69,32.54-.03-.13-.06-.26-.1-.39-1.91-7.96-1.9-16.86-3.12-24.68-1.07-6.8-3.07-12.79-8.1-16.68-6.07-4.69-6.29-15.36-8.85-27.67-.89-4.28-1.21-9.64-2.39-13.59Z"/>
              <path class="cls-5" d="m634.09,173.98c2.02,18.94,26.32,20.76,56.01-6.19,33.43-30.34,65.54-30.34,98.97,0,29.69,26.95,53.98,25.13,56.01,6.19,8.81-82.38-219.8-82.38-210.99,0Z"/>
              <path class="cls-1" d="m841.51,149.43c.41.71.16,1.62-.55,2.02-.71.41-1.62.16-2.02-.55-5.91-10.33-15.37-18.74-27.05-25.22-20.07-11.13-46.65-16.59-73.17-16.45-26.51.15-52.93,5.9-72.66,17.19-11.35,6.49-20.46,14.81-26.08,24.92-.4.71-1.3.97-2.01.57-.72-.4-.97-1.3-.58-2.01,5.9-10.62,15.4-19.31,27.19-26.06,20.17-11.54,47.11-17.42,74.12-17.57,27-.15,54.1,5.43,74.62,16.82,12.14,6.74,21.99,15.51,28.18,26.33Z"/>
              <path class="cls-1" d="m802.53,111.85c.17.79-.34,1.57-1.14,1.74-.79.17-1.57-.35-1.74-1.14-6.27-29.81-18.88-49.95-33.76-60.56-8.35-5.95-17.42-8.9-26.47-8.85-9.05.05-18.11,3.09-26.44,9.11-14.98,10.81-27.62,31.21-33.71,61.07-.16.8-.94,1.31-1.73,1.15-.79-.16-1.31-.94-1.15-1.73,6.25-30.64,19.32-51.65,34.87-62.87,8.84-6.38,18.48-9.61,28.15-9.66,9.67-.05,19.32,3.07,28.19,9.39,15.45,11.01,28.5,31.76,34.94,62.36Z"/>
              <path class="cls-1" d="m713.38,74.08c17.39-4.05,34.77-3.62,52.16,0v27.34c-16.92-3.5-34.28-3.69-52.16,0v-27.34Z"/>
            </g>
            <g>
              <path class="cls-1" d="m774.48,271.04c-52.1-.82-65.5-.3-65.5-.3,0,0,5.35,24.93,30.29,27.25,9.63.9,27.13-3.65,35.21-26.94Z"/>
              <path class="cls-17" d="m720.66,290.18c4.46,3.9,10.49,7.05,18.6,7.8,6.03.56,15.14-1.01,23.1-7.99-7.75-6.73-16.62-8.32-22.55-7.82-8.39.7-14.6,3.97-19.16,8.01Z"/>
              <path class="cls-4" d="m771.54,277.96c-37.86-.57-54.37-.42-60.09-.32-1.84-3.96-2.47-6.9-2.47-6.9,0,0,13.4-.51,65.5.3-.88,2.52-1.86,4.82-2.93,6.92Z"/>
              <g>
                <path class="cls-10" d="m729.82,246.01c-.4.93-1.48,1.35-2.41.95-.93-.4-1.35-1.48-.95-2.41.52-1.2.99-2.83,1.37-4.58.45-2.06.77-4.23.92-6.01.08-1.01.97-1.76,1.98-1.68,1.01.08,1.76.97,1.68,1.98-.16,1.92-.51,4.27-.99,6.48-.43,1.94-.96,3.81-1.6,5.27Z"/>
                <path class="cls-8" d="m729.88,252.28c1.46,4.32,6.17,7.49,11.78,7.51,5.58.03,10.31-3.06,11.87-7.31,1.93-5.26-5.57-3.23-11.89-3.25-6.21-.02-13.48-2.07-11.76,3.04Z"/>
              </g>
              <path class="cls-1" d="m715.64,180.91c2.11.98,3.04,3.5,2.06,5.62-.98,2.12-3.5,3.06-5.61,2.08-.04-.01-12.74-6.12-24.96,1.5-1.99,1.24-4.61.63-5.84-1.37-1.23-1.99-.61-4.62,1.38-5.86,16.15-10.05,32.93-1.99,32.98-1.97Z"/>
              <path class="cls-1" d="m767.89,181.15c-2.13.96-3.09,3.47-2.15,5.6.95,2.13,3.45,3.09,5.58,2.13.04-.02,12.83-6,24.94,1.72,1.97,1.26,4.6.67,5.86-1.31,1.26-1.98.68-4.61-1.29-5.87-15.99-10.2-32.9-2.3-32.94-2.28Z"/>
              <g>
                <path class="cls-1" d="m699.47,230.1c5.78,0,10.46-5.64,10.46-12.59s-4.68-12.59-10.46-12.59-10.46,5.64-10.46,12.59,4.68,12.59,10.46,12.59Z"/>
                <path class="cls-1" d="m783.83,230.1c5.77,0,10.46-5.64,10.46-12.59s-4.68-12.59-10.46-12.59-10.46,5.64-10.46,12.59,4.68,12.59,10.46,12.59Z"/>
              </g>
              <path class="cls-8" d="m729.88,309.49c1.46,4.31,6.17,7.49,11.78,7.51,5.58.02,10.31-3.06,11.87-7.31,1.93-5.26-5.57-3.23-11.89-3.24-6.21-.02-13.48-2.07-11.76,3.04Z"/>
              <path class="cls-4" d="m706.84,206.89c2.14,0,3.87,1.73,3.87,3.87s-1.73,3.87-3.87,3.87-3.87-1.73-3.87-3.87,1.73-3.87,3.87-3.87Z"/>
              <path class="cls-4" d="m790.65,206.89c2.14,0,3.87,1.73,3.87,3.87s-1.73,3.87-3.87,3.87-3.87-1.73-3.87-3.87,1.73-3.87,3.87-3.87Z"/>
            </g>
          </g>
          <g>
            <path class="cls-14" d="m1026.51,639.6c36.21-57.26,4.82-247.54,4.82-247.54l-58.88,4.47c-12.74,51.99-47.57,166.86-61.97,224.86-1.29,5.19,55.57,113.81,116.02,18.22Z"/>
            <path class="cls-5" d="m1047.9,451.39c-30.2,8.59-78.76,6.84-94.5-25.36l19.04-78.65,37.65,13.5c9.31-9.4,15.99,11.58,18.43,16.53,4.31,8.71,14.93,37.19,19.4,73.98Z"/>
            <g>
              <path class="cls-11" d="m991.28,351.59l69.04,85.15-.03.03c.7,9.74.87,22.39,1.95,32.85.42,4.08.82,8.1,2.39,11.91,2.49,6.05,7.72,12.12,17,17.77,18.46,11.41,38.97,12.88,24.34-5.7-7.86-9.97-11.59-14.67-13.37-16.88-4.28-5.32,19.24-26.06,24.81-19.27,1.95,2.38,5.78,7.01,13.33,16.06,15.15,18.15,17.96-2.21,10.6-22.64-3.46-9.81-8.06-16.07-13.2-19.83-3.32-2.43-6.44-3.48-10.28-4.75-10.24-3.4-23.45-6.3-33.26-9.09l-69.12-85.23-69.12-85.23c-.7-10.18-.81-23.7-2.03-34.42-.46-4.02-.84-7.29-2.53-11.04-2.61-5.8-7.79-11.59-16.67-17.01-18.46-11.41-38.97-12.88-24.34,5.7,7.29,9.26,11.04,13.97,12.96,16.37,5.49,6.85-19.65,25.58-23.98,20.29-1.8-2.2-5.62-6.83-13.75-16.57-15.16-18.15-17.95,2.21-10.6,22.64,3.61,10.24,8.47,16.61,13.87,20.3,3.4,2.32,7.25,3.54,11.16,4.79,10.02,3.22,22.36,6,31.75,8.69l.03-.03,69.05,85.14Z"/>
              <path class="cls-1" d="m934.7,246.84l147.38,181.74c2.24,2.76,1.81,6.84-.95,9.08h0c-2.75,2.24-6.84,1.81-9.08-.95l-147.38-181.74c-2.24-2.76-1.81-6.84.95-9.08h0c2.76-2.24,6.84-1.81,9.08.95Z"/>
              <path class="cls-1" d="m1139.24,474.67c.52.64.43,1.59-.22,2.11-.64.52-1.59.43-2.11-.22l-12.85-15.84c-.69-.84-1.35-1.73-2-2.6-2.78-3.7-5.18-6.9-9.12-5.66-5.39,1.71-10.21,4.56-14.28,8.17-4.32,3.83-7.79,8.51-10.21,13.55-.36.75-1.26,1.06-2,.71-.75-.36-1.06-1.25-.71-2,2.58-5.4,6.3-10.41,10.93-14.51,4.38-3.88,9.56-6.96,15.36-8.79,5.96-1.89,8.97,2.11,12.43,6.73.61.82,1.24,1.66,1.93,2.5l12.85,15.85Z"/>
              <path class="cls-1" d="m899.08,183.28c-.52-.64-.42-1.59.22-2.11.64-.52,1.59-.43,2.11.22l12.85,15.84c.68.84,1.37,1.63,2.05,2.41,3.8,4.34,7.09,8.11,4.01,13.55-3,5.3-7.08,9.74-11.77,13.22-4.97,3.68-10.64,6.28-16.45,7.7-.81.2-1.62-.3-1.82-1.11-.2-.81.3-1.62,1.11-1.81,5.43-1.32,10.73-3.75,15.37-7.19,4.37-3.24,8.16-7.36,10.94-12.28,2.03-3.59-.61-6.61-3.66-10.1-.71-.81-1.43-1.63-2.12-2.49l-12.85-15.84Z"/>
            </g>
            <path class="cls-5" d="m992.37,301.91c-9.27-8.65-11.23-10.25-11.23-10.25,0,0-15.35,14.14-20.79,10.8-5.43-3.35-7.02-10.08,1.7-18.75,8.71-8.67,22.68-15.78,32.95-9.03,10.27,6.75,4.2,35.54,4.2,35.54l-6.84-8.3Z"/>
            <path class="cls-5" d="m1003.75,316.64c-9.27-8.65-11.23-10.25-11.23-10.25,0,0-15.35,14.14-20.79,10.8-5.43-3.34-7.01-10.08,1.7-18.75,8.71-8.68,22.68-15.78,32.95-9.03,10.28,6.75,4.2,35.54,4.2,35.54l-6.84-8.3Z"/>
            <path class="cls-5" d="m1015.13,331.37c-9.27-8.65-11.23-10.25-11.23-10.25,0,0-15.35,14.14-20.78,10.8-5.43-3.34-7.02-10.08,1.7-18.75,8.71-8.67,22.68-15.78,32.95-9.03,10.27,6.75,4.2,35.54,4.2,35.54l-6.83-8.3Z"/>
            <path class="cls-5" d="m1026.52,346.1c-9.27-8.65-11.23-10.25-11.23-10.25,0,0-15.35,14.14-20.79,10.8-5.44-3.35-7.02-10.08,1.7-18.75,8.71-8.68,22.68-15.79,32.95-9.03,10.28,6.75,4.2,35.54,4.2,35.54l-6.83-8.3Z"/>
            <path class="cls-1" d="m1019.87,314.1c.76-.21,1.54.23,1.75.99.21.76-.23,1.54-.99,1.75-6.25,1.74-11.2,3.6-15.61,6.18-4.38,2.57-8.27,5.88-12.4,10.53-.52.59-1.43.64-2.01.12-.59-.52-.64-1.43-.12-2.01,4.33-4.87,8.43-8.35,13.1-11.09,4.65-2.72,9.81-4.67,16.29-6.47Z"/>
            <path class="cls-1" d="m1007.3,299.48c.76-.21,1.55.23,1.75.99.21.76-.24,1.54-1,1.75-6.25,1.74-11.2,3.6-15.61,6.18-4.38,2.57-8.27,5.88-12.4,10.53-.52.59-1.43.64-2.01.12-.59-.52-.64-1.43-.12-2.01,4.33-4.87,8.43-8.35,13.09-11.09,4.65-2.72,9.81-4.67,16.29-6.47Z"/>
            <path class="cls-1" d="m996.45,284.1c.76-.21,1.54.24,1.75.99.21.76-.23,1.54-.99,1.75-6.25,1.74-11.2,3.6-15.61,6.18-4.38,2.57-8.27,5.88-12.4,10.53-.52.59-1.43.64-2.01.12-.59-.52-.64-1.43-.12-2.01,4.33-4.87,8.43-8.35,13.1-11.09,4.65-2.72,9.81-4.67,16.29-6.47Z"/>
            <path class="cls-1" d="m1027.08,331.95c.76-.21,1.54.23,1.75.99.21.76-.24,1.54-.99,1.75-1.95.54-3.79,1.1-5.55,1.7-1.75.6-3.38,1.21-4.89,1.87-.72.31-1.56-.02-1.87-.74-.31-.72.02-1.56.74-1.87,1.64-.71,3.33-1.36,5.1-1.96,1.77-.6,3.66-1.18,5.7-1.75Z"/>
            <path class="cls-5" d="m951.03,347.7c-3.04-6.25-1.86-11.88-6.28-20.8-19.39-39.1-4.68-42.92,9.37-26.37,14.04,16.55,17.42,25.45,17.42,25.45,85.58,64.96,13.85,92.43-20.5,21.73Z"/>
          </g>
          <path class="cls-1" d="m964.96,371.82c-.55-.56-.55-1.46,0-2.01.56-.55,1.46-.55,2.01,0,1.83,1.84,7.22,7.23,11.66,11.51,2.59,2.5,4.83,4.59,5.78,5.31.63.48.75,1.37.27,1.99-.47.62-1.37.75-1.99.27-1.08-.82-3.4-2.98-6.04-5.52-4.44-4.28-9.86-9.7-11.7-11.55Z"/>
        </g>
        <path class="cls-1" d="m916.64,611.99c0,.83-.68,1.5-1.51,1.5-.83,0-1.5-.68-1.5-1.51.09-16.84,3.69-27.02,7.47-37.7,2.28-6.43,4.62-13.06,6.27-21.45.16-.82.95-1.35,1.77-1.19.82.16,1.35.95,1.19,1.77-1.69,8.6-4.07,15.34-6.39,21.88-3.7,10.45-7.22,20.4-7.31,36.71Z"/>
      </g>
      <g>
        <path class="cls-19" d="m159.02,737.62v10.22h-17.08v-219.57h-3.71c-3.84,0-6.98-3.14-6.98-6.98s3.13-6.98,6.98-6.98h206.32c3.84,0,6.98,3.14,6.98,6.98s-3.14,6.98-6.98,6.98h-7.99v219.57h-17.09v-10.22h-160.44Zm0-13.96h160.44v-71.6h-160.44v71.6h0Zm0-85.56h160.44v-49.75h-160.44v49.75h0Zm160.44-63.71v-46.11h-160.44v46.11h160.44Z"/>
        <g>
          <path class="cls-19" d="m169,542.3h31.62v31.29c0,1.86-1.52,3.38-3.38,3.38h-27.19c-1.79,0-3.25-1.46-3.25-3.25v-29.21c0-1.21.99-2.21,2.21-2.21Z"/>
          <path class="cls-21" d="m169.22,535.82h9.12c1.06,0,1.91.86,1.91,1.91v3.11c0,1.06-.86,1.91-1.91,1.91h-9.12c-1.06,0-1.91-.86-1.91-1.91v-3.11c0-1.06.86-1.91,1.91-1.91Z"/>
          <path class="cls-19" d="m183.71,537.45c.8-1.1,1.79-1.94,3.11-2.34,1.28-.39,2.49-.23,3.79-.25h4.79c1.58,0,3.22-.12,4.38,1.21,1.05,1.21.8,2.58.8,4.02v9.3l-20.11-6.92,3.19-4.96.05-.07Z"/>
          <path class="cls-19" d="m185.89,539.04l-1.29,2,13.27,4.57v-5.52c0-2.61.47-2.53-2.47-2.53h-4.75c-2.25.03-3.4-.38-4.76,1.48Z"/>
          <rect class="cls-21" x="169.38" y="552.21" width="28.36" height="15.22"/>
        </g>
        <g>
          <path class="cls-19" d="m229.35,604.36h15.16c9.59,0,17.44,7.85,17.44,17.44v14.83c0,1.92-1.57,3.49-3.49,3.49h-28.04c-1.85,0-3.35-1.51-3.35-3.35v-30.13c0-1.25,1.02-2.28,2.28-2.28Z"/>
          <path class="cls-21" d="m229.58,597.67h9.41c1.09,0,1.97.88,1.97,1.97v3.22c0,1.09-.88,1.97-1.97,1.97h-9.41c-1.09,0-1.97-.88-1.97-1.97v-3.22c0-1.09.88-1.97,1.97-1.97Z"/>
          <rect class="cls-21" x="229.49" y="610.28" width="15.7" height="15.7"/>
          <rect class="cls-21" x="229.49" y="627.99" width="15.7" height="6.71"/>
        </g>
        <g>
          <path class="cls-21" d="m291.12,601.8h8.56c1.87,0,3.39,1.52,3.39,3.39v30.65c0,1.87-1.52,3.39-3.39,3.39h-8.55c-1.87,0-3.39-1.52-3.39-3.39v-30.66c0-1.87,1.52-3.38,3.38-3.38Z"/>
          <path class="cls-21" d="m291.57,596.08h7.67c.88,0,1.6.72,1.6,1.6v2.59c0,.88-.72,1.6-1.6,1.6h-7.66c-.89,0-1.61-.72-1.61-1.61v-2.58c0-.89.72-1.6,1.6-1.6Z"/>
          <rect class="cls-21" x="287.74" y="612.23" width="15.33" height="18"/>
        </g>
        <g>
          <path class="cls-21" d="m270.79,601.8h8.56c1.87,0,3.38,1.52,3.38,3.38v30.66c0,1.87-1.52,3.38-3.38,3.38h-8.56c-1.87,0-3.39-1.52-3.39-3.39v-30.66c0-1.87,1.52-3.38,3.38-3.38Z"/>
          <path class="cls-21" d="m271.24,596.08h7.66c.88,0,1.6.72,1.6,1.6v2.59c0,.88-.72,1.6-1.6,1.6h-7.66c-.88,0-1.6-.72-1.6-1.6v-2.59c0-.89.72-1.6,1.6-1.6Z"/>
          <rect class="cls-21" x="267.41" y="612.23" width="15.33" height="18"/>
        </g>
        <g>
          <path class="cls-21" d="m170.58,654.05h10.86c2.6,0,4.71,2.11,4.71,4.71v63.44c0,2.6-2.11,4.71-4.71,4.71h-10.86c-2.6,0-4.7-2.11-4.7-4.7v-63.45c0-2.6,2.11-4.7,4.7-4.7Z"/>
          <g>
            <path class="cls-19" d="m183.83,654.88c.32.24.61.53.88.85l-8.31,6.07c-.15.11-.35.12-.52,0l-8.47-6.19c.28-.32.58-.6.91-.83l7.82,5.71,7.69-5.62Z"/>
            <path class="cls-19" d="m186.14,660.29v1.5l-9.74,7.12c-.15.11-.35.12-.52,0l-10.01-7.32v-1.5l10.26,7.5,10-7.31Z"/>
            <path class="cls-19" d="m186.14,667.39v1.5l-9.74,7.12c-.15.11-.35.12-.52,0l-10.01-7.32v-1.5l10.26,7.5,10-7.31Z"/>
            <path class="cls-19" d="m186.14,674.49v1.5l-9.74,7.12c-.15.11-.35.12-.52,0l-10.01-7.31v-1.5l10.26,7.5,10-7.31Z"/>
            <path class="cls-19" d="m186.14,681.6v1.5l-9.74,7.12c-.15.12-.35.12-.52,0l-10.01-7.32v-1.5l10.26,7.5,10-7.31Z"/>
            <path class="cls-19" d="m186.14,688.7v1.49l-9.74,7.12c-.15.11-.35.12-.52,0l-10.01-7.32v-1.5l10.26,7.5,10-7.31Z"/>
            <path class="cls-19" d="m186.14,695.8v1.5l-9.74,7.12c-.15.11-.35.12-.52,0l-10.01-7.32v-1.5l10.26,7.5,10-7.31Z"/>
            <path class="cls-19" d="m186.14,702.9v1.5l-9.74,7.12c-.15.12-.35.12-.52,0l-10.01-7.32v-1.5l10.26,7.5,10-7.31Z"/>
            <path class="cls-19" d="m186.14,710v1.5l-9.74,7.12c-.15.11-.35.12-.52,0l-10.01-7.32v-1.5l10.26,7.5,10-7.31Z"/>
            <path class="cls-19" d="m186.14,717.11v1.5l-9.74,7.12c-.15.11-.35.12-.52,0l-10.01-7.32v-1.5l10.26,7.5,10-7.31Z"/>
          </g>
        </g>
        <g>
          <path class="cls-21" d="m192.11,654.05h10.86c2.6,0,4.7,2.11,4.7,4.7v63.45c0,2.6-2.11,4.71-4.71,4.71h-10.86c-2.6,0-4.71-2.11-4.71-4.71v-63.44c0-2.6,2.11-4.71,4.71-4.71Z"/>
          <g>
            <path class="cls-19" d="m205.36,654.88c.32.24.61.53.88.85l-8.31,6.07c-.15.11-.35.12-.51,0l-8.48-6.19c.28-.32.58-.6.91-.83l7.82,5.71,7.69-5.62Z"/>
            <path class="cls-19" d="m207.67,660.29v1.5l-9.74,7.12c-.15.11-.35.12-.51,0l-10.01-7.32v-1.5l10.26,7.5,10-7.31Z"/>
            <path class="cls-19" d="m207.67,667.39v1.5l-9.74,7.12c-.15.11-.35.12-.51,0l-10.01-7.32v-1.5l10.26,7.5,10-7.31Z"/>
            <path class="cls-19" d="m207.67,674.49v1.5l-9.74,7.12c-.15.11-.35.12-.51,0l-10.01-7.31v-1.5l10.26,7.5,10-7.31Z"/>
            <path class="cls-19" d="m207.67,681.6v1.5l-9.74,7.12c-.15.12-.35.12-.51,0l-10.01-7.32v-1.5l10.26,7.5,10-7.31Z"/>
            <path class="cls-19" d="m207.67,688.7v1.49l-9.74,7.12c-.15.11-.35.12-.51,0l-10.01-7.32v-1.5l10.26,7.5,10-7.31Z"/>
            <path class="cls-19" d="m207.67,695.8v1.5l-9.74,7.12c-.15.11-.35.12-.51,0l-10.01-7.32v-1.5l10.26,7.5,10-7.31Z"/>
            <path class="cls-19" d="m207.67,702.9v1.5l-9.74,7.12c-.15.12-.35.12-.51,0l-10.01-7.32v-1.5l10.26,7.5,10-7.31Z"/>
            <path class="cls-19" d="m207.67,710v1.5l-9.74,7.12c-.15.11-.35.12-.51,0l-10.01-7.32v-1.5l10.26,7.5,10-7.31Z"/>
            <path class="cls-19" d="m207.67,717.11v1.5l-9.74,7.12c-.15.11-.35.12-.51,0l-10.01-7.32v-1.5l10.26,7.5,10-7.31Z"/>
          </g>
        </g>
        <g>
          <path class="cls-21" d="m213.82,654.05h10.86c2.6,0,4.7,2.11,4.7,4.7v63.45c0,2.6-2.11,4.71-4.71,4.71h-10.85c-2.6,0-4.71-2.11-4.71-4.71v-63.44c0-2.6,2.11-4.7,4.7-4.7Z"/>
          <g>
            <path class="cls-19" d="m227.07,654.88c.32.24.61.53.88.85l-8.31,6.07c-.15.11-.35.12-.52,0l-8.47-6.19c.28-.32.58-.6.91-.83l7.82,5.71,7.69-5.62Z"/>
            <path class="cls-19" d="m229.38,660.29v1.5l-9.74,7.12c-.15.11-.35.12-.52,0l-10.01-7.32v-1.5l10.26,7.5,10-7.31Z"/>
            <path class="cls-19" d="m229.38,667.39v1.5l-9.74,7.12c-.15.11-.35.12-.52,0l-10.01-7.32v-1.5l10.26,7.5,10-7.31Z"/>
            <path class="cls-19" d="m229.38,674.49v1.5l-9.74,7.12c-.15.11-.35.12-.52,0l-10.01-7.31v-1.5l10.26,7.5,10-7.31Z"/>
            <path class="cls-19" d="m229.38,681.6v1.5l-9.74,7.12c-.15.12-.35.12-.52,0l-10.01-7.32v-1.5l10.26,7.5,10-7.31Z"/>
            <path class="cls-19" d="m229.38,688.7v1.49l-9.74,7.12c-.15.11-.35.12-.52,0l-10.01-7.32v-1.5l10.26,7.5,10-7.31Z"/>
            <path class="cls-19" d="m229.38,695.8v1.5l-9.74,7.12c-.15.11-.35.12-.52,0l-10.01-7.32v-1.5l10.26,7.5,10-7.31Z"/>
            <path class="cls-19" d="m229.38,702.9v1.5l-9.74,7.12c-.15.12-.35.12-.52,0l-10.01-7.32v-1.5l10.26,7.5,10-7.31Z"/>
            <path class="cls-19" d="m229.38,710v1.5l-9.74,7.12c-.15.11-.35.12-.52,0l-10.01-7.32v-1.5l10.26,7.5,10-7.31Z"/>
            <path class="cls-19" d="m229.38,717.11v1.5l-9.74,7.12c-.15.11-.35.12-.52,0l-10.01-7.32v-1.5l10.26,7.5,10-7.31Z"/>
          </g>
        </g>
      </g>
      <g>
        <g>
          <path class="cls-13" d="m300.26,599.12c-30.92,0-55.98,33.29-55.98,74.36s25.06,74.36,55.98,74.36h37.79c-41.66-20.58-46.88-44.8-46.88-74.36,0-19.81,0-43.71,46.88-74.36h-37.79Z"/>
          <path class="cls-1" d="m338.05,599.12c-34.37,0-62.23,33.29-62.23,74.36s27.86,74.36,62.23,74.36,62.23-33.29,62.23-74.36-27.86-74.36-62.23-74.36Z"/>
          <g>
            <path class="cls-4" d="m339,618.23c-24.3,0-43.99,25.01-43.99,55.85s19.7,55.85,43.99,55.85,43.99-25.01,43.99-55.85-19.69-55.85-43.99-55.85Z"/>
            <g>
              <path class="cls-4" d="m339,623.48c-22.01,0-39.86,22.66-39.86,50.6s17.84,50.6,39.86,50.6,39.85-22.65,39.85-50.6-17.84-50.6-39.85-50.6Z"/>
              <g>
                <path class="cls-6" d="m299.8,683.23c.18,1.22.39,2.42.63,3.61l77.92-20.88c-.16-1.22-.34-2.43-.57-3.63l-77.98,20.89Z"/>
                <path class="cls-6" d="m299.16,672.73c0,.45-.01.9-.01,1.36,0,.77.02,1.53.04,2.29h79.63c.03-.76.04-1.52.04-2.29,0-.45,0-.91-.01-1.36h-79.68Z"/>
                <path class="cls-6" d="m300.25,662.21c-.23,1.19-.42,2.4-.58,3.62l77.93,20.88c.24-1.19.45-2.39.62-3.62l-77.97-20.89Z"/>
                <path class="cls-6" d="m339,623.48c-.53,0-1.06.02-1.58.04v101.12c.52.03,1.05.04,1.58.04.7,0,1.39-.02,2.08-.07v-101.07c-.69-.04-1.38-.07-2.08-.07Z"/>
                <path class="cls-6" d="m324.82,721.39c1.11.54,2.24,1.02,3.4,1.43l25.64-95.69c-1.1-.56-2.23-1.06-3.38-1.5l-25.66,95.77Z"/>
                <path class="cls-6" d="m314.42,713.92c.89.89,1.81,1.72,2.75,2.51l47.06-81.51c-.88-.91-1.78-1.77-2.71-2.58l-47.1,81.58Z"/>
                <path class="cls-6" d="m306.99,704.23c.64,1.09,1.31,2.14,2.01,3.16l62.54-62.54c-.62-1.11-1.27-2.18-1.95-3.22l-62.59,62.59Z"/>
                <path class="cls-6" d="m302.28,693.79c.39,1.18.82,2.34,1.29,3.47l72.49-41.85c-.37-1.19-.78-2.36-1.22-3.51l-72.55,41.89Z"/>
                <path class="cls-6" d="m303.27,651.67c-.45,1.14-.86,2.3-1.24,3.49l72.5,41.86c.46-1.14.88-2.29,1.26-3.48l-72.53-41.88Z"/>
                <path class="cls-6" d="m308.63,641.34c-.69,1.03-1.35,2.1-1.97,3.2l62.56,62.56c.7-1.03,1.36-2.09,1.99-3.18l-62.58-62.58Z"/>
                <path class="cls-6" d="m316.82,632.04c-.94.8-1.86,1.66-2.74,2.56l47.08,81.55c.94-.8,1.86-1.65,2.74-2.55l-47.08-81.55Z"/>
                <path class="cls-6" d="m327.99,625.45c-1.15.42-2.29.9-3.39,1.45l25.66,95.75c1.15-.43,2.28-.92,3.39-1.47l-25.65-95.72Z"/>
              </g>
              <path class="cls-6" d="m339,651.98c-9.62,0-17.42,9.9-17.42,22.11s7.8,22.11,17.42,22.11,17.41-9.9,17.41-22.11-7.8-22.11-17.41-22.11Z"/>
              <path class="cls-16" d="m339,658.53c-6.77,0-12.25,6.96-12.25,15.55s5.49,15.56,12.25,15.56,12.25-6.96,12.25-15.56-5.49-15.55-12.25-15.55Z"/>
            </g>
          </g>
        </g>
        <g>
          <path class="cls-13" d="m380.04,599.12c-30.91,0-55.98,33.29-55.98,74.36s25.06,74.36,55.98,74.36h37.79c-41.66-20.58-46.88-44.8-46.88-74.36,0-19.81,0-43.71,46.88-74.36h-37.79Z"/>
          <path class="cls-1" d="m417.83,599.12c-34.37,0-62.23,33.29-62.23,74.36s27.86,74.36,62.23,74.36,62.23-33.29,62.23-74.36-27.86-74.36-62.23-74.36Z"/>
          <g>
            <path class="cls-4" d="m418.78,618.23c-24.3,0-43.99,25.01-43.99,55.85s19.69,55.85,43.99,55.85,43.99-25.01,43.99-55.85-19.7-55.85-43.99-55.85Z"/>
            <g>
              <path class="cls-4" d="m418.78,623.48c-22.01,0-39.86,22.66-39.86,50.6s17.84,50.6,39.86,50.6,39.85-22.65,39.85-50.6-17.84-50.6-39.85-50.6Z"/>
              <g>
                <path class="cls-6" d="m379.58,683.23c.17,1.22.38,2.42.63,3.61l77.92-20.88c-.15-1.22-.35-2.43-.57-3.63l-77.98,20.89Z"/>
                <path class="cls-6" d="m378.94,672.73c0,.45-.01.9-.01,1.36,0,.77.02,1.53.04,2.29h79.63c.03-.76.04-1.52.04-2.29,0-.45,0-.91-.01-1.36h-79.68Z"/>
                <path class="cls-6" d="m380.03,662.21c-.23,1.19-.42,2.4-.58,3.62l77.93,20.88c.24-1.19.45-2.39.62-3.62l-77.97-20.89Z"/>
                <path class="cls-6" d="m418.78,623.48c-.53,0-1.05.02-1.57.04v101.12c.52.03,1.05.04,1.57.04.7,0,1.39-.02,2.08-.07v-101.07c-.69-.04-1.38-.07-2.08-.07Z"/>
                <path class="cls-6" d="m404.59,721.39c1.11.54,2.24,1.02,3.4,1.43l25.64-95.69c-1.1-.56-2.23-1.06-3.38-1.5l-25.66,95.77Z"/>
                <path class="cls-6" d="m394.2,713.92c.89.89,1.81,1.72,2.76,2.51l47.06-81.51c-.87-.91-1.78-1.77-2.71-2.58l-47.1,81.58Z"/>
                <path class="cls-6" d="m386.77,704.23c.63,1.09,1.31,2.14,2.01,3.16l62.54-62.54c-.62-1.11-1.27-2.18-1.95-3.22l-62.59,62.59Z"/>
                <path class="cls-6" d="m382.06,693.79c.39,1.18.82,2.34,1.29,3.47l72.49-41.85c-.37-1.19-.78-2.36-1.22-3.51l-72.55,41.89Z"/>
                <path class="cls-6" d="m383.04,651.67c-.44,1.14-.86,2.3-1.23,3.49l72.5,41.86c.46-1.14.88-2.29,1.26-3.48l-72.54-41.88Z"/>
                <path class="cls-6" d="m388.4,641.34c-.69,1.03-1.35,2.1-1.97,3.2l62.56,62.56c.7-1.03,1.36-2.09,1.99-3.18l-62.58-62.58Z"/>
                <path class="cls-6" d="m396.6,632.04c-.94.8-1.86,1.66-2.74,2.56l47.08,81.55c.94-.8,1.85-1.65,2.74-2.55l-47.08-81.55Z"/>
                <path class="cls-6" d="m407.77,625.45c-1.15.42-2.28.9-3.39,1.45l25.66,95.75c1.15-.43,2.28-.92,3.39-1.47l-25.65-95.72Z"/>
              </g>
              <path class="cls-6" d="m418.78,651.98c-9.62,0-17.41,9.9-17.41,22.11s7.79,22.11,17.41,22.11,17.41-9.9,17.41-22.11-7.8-22.11-17.41-22.11Z"/>
              <path class="cls-16" d="m418.78,658.53c-6.76,0-12.25,6.96-12.25,15.55s5.49,15.56,12.25,15.56,12.25-6.96,12.25-15.56-5.49-15.55-12.25-15.55Z"/>
            </g>
          </g>
        </g>
      </g>
    </g>
  </g>
</svg>